<svg width="224" height="160" viewBox="0 0 224 160" fill="none" xmlns="http://www.w3.org/2000/svg">
<path d="M91.8954 77.4152C93.0308 49.035 116.947 26.9412 145.312 28.0662C152.843 28.3631 159.937 30.2746 166.265 33.4412C183.765 42.2121 195.447 60.6444 194.614 81.4881C193.479 109.863 169.567 131.957 141.203 130.832C123.031 130.113 107.442 120.04 98.8798 105.431C94.0777 97.2329 91.4891 87.6131 91.8954 77.4152ZM204.927 130.54C211.197 122.931 216.031 114.15 219.109 104.78C221.416 97.7537 222.729 90.4048 223.026 83.0089C224.484 46.5089 201.224 14.7589 168.166 3.93081C161.302 1.68081 154.02 0.337065 146.447 0.0349807C144.77 -0.0327273 83.0412 0.0141477 56.135 0.0401891C52.5568 0.0401891 50.8537 4.17561 52.9162 6.70686C53.1298 6.97248 72.7235 21.7589 72.9527 22.0506C74.9162 24.5923 73.2079 28.6391 69.6662 28.6391L4.11413 28.66C2.15059 28.66 0.74955 29.9048 0.223507 31.4516C-0.297325 32.9985 0.0620484 34.8371 1.61934 36.035L53.6923 75.8475C56.8277 78.2433 55.1037 83.2589 51.1558 83.2173C48.1402 83.1912 27.4839 83.1235 27.0933 83.2433C24.1714 83.9412 22.9423 87.91 25.1402 90.311C63.1454 131.702 94.6141 151.275 123.947 157.368C139.578 161.254 156.364 160.301 171.432 154.587C183.869 150.009 194.338 142.499 202.531 133.327C203.349 132.415 204.151 131.483 204.927 130.54Z" fill="#FF5533"/>
<path d="M144.848 48.8266C161.161 49.4725 173.854 63.2277 173.203 79.5454C172.551 95.8631 158.796 108.566 142.484 107.92C126.176 107.275 113.484 93.5194 114.135 77.2016C114.786 60.8839 128.536 48.1808 144.848 48.8266ZM144.64 71.4464C144.833 66.1548 149.275 62.0246 154.562 62.2173C159.848 62.4048 163.979 66.8475 163.786 72.1391C163.593 77.4256 159.15 81.561 153.864 81.3683C148.578 81.1808 144.447 76.7381 144.64 71.4464Z" fill="#FF5533"/>
</svg>
